<?xml version="1.0" encoding="utf-8"?>
<!-- Generator: Adobe Illustrator 22.0.1, SVG Export Plug-In . SVG Version: 6.00 Build 0)  -->
<svg version="1.1" baseProfile="tiny" id="Layer_1" xmlns="http://www.w3.org/2000/svg" xmlns:xlink="http://www.w3.org/1999/xlink"
	 x="0px" y="0px" viewBox="0 0 466 203.8" xml:space="preserve">
<rect y="99.8" fill="#FFFFFF" width="466" height="104"/>
<g>
	<path d="M347.3,0c0,2.1,0,4.1,0,6.2c0,0.9,0.3,1.2,1.2,1.1c2-0.1,4.1,0,6.2,0c0,22.2,0,44.2,0,66.4c-2.4,0-4.8,0-7.3,0
		c0,2.5,0,4.9,0,7.3c-73.8,0-147.5,0-221.3,0c0-2.4,0-4.8,0-7.3c-2.5,0-4.9,0-7.3,0c0-22.2,0-44.2,0-66.4c2.4,0,4.7,0,7.3,0
		c0-2.5,0-4.9,0-7.3C199.8,0,273.5,0,347.3,0z M347.3,66.3c0-17.3,0-34.4,0-51.7c-2.4,0-4.8,0-7.3,0c0-2.5,0-4.9,0-7.3
		c-68.9,0-137.6,0-206.5,0c0,2.4,0,4.8,0,7.3c-2.5,0-4.9,0-7.2,0c0,17.3,0,34.4,0,51.7c2.4,0,4.8,0,7.3,0c0,2.5,0,4.9,0,7.3
		c68.9,0,137.7,0,206.6,0c0-2.5,0-4.8,0-7.3C342.5,66.3,344.8,66.3,347.3,66.3z"/>
	<path d="M398.9,125.4c2.6,0,4.9,0,7.4,0c0,17.2,0,34.3,0,51.5c-2.4,0-4.8,0-7.3,0c0-7.4,0-14.7,0-22c-7.4,0-14.7,0-22.1,0
		c0,7.3,0,14.6,0,22c-2.5,0-4.9,0-7.4,0c0-17.2,0-34.3,0-51.5c2.4,0,4.8,0,7.3,0c0,7.4,0,14.7,0,22c7.4,0,14.7,0,22.1,0
		C398.9,140.1,398.9,132.8,398.9,125.4z"/>
	<path d="M339.9,176.9c-2.5,0-4.8,0-7.3,0c0-9.8,0-19.6,0-29.4c-4.9,0-9.8,0-14.8,0c0,9.8,0,19.6,0,29.4c-2.5,0-4.9,0-7.3,0
		c0-17.2,0-34.4,0-51.6c2.4,0,4.8,0,7.2,0c0,4.9,0,9.7,0,14.7c5,0,9.8,0,14.8,0c0,2.5,0,4.9,0,7.4c2.5,0,4.8,0,7.3,0
		C339.9,157.3,339.9,167,339.9,176.9z"/>
	<path d="M52.4,140.2c0,1.9-0.1,3.7-0.1,5.6c0,0.5,0,1,0,1.6c-2.5,0-4.8,0-7.3,0c0,2.5,0,4.9,0,7.3c-2.5,0-4.9,0-7.4,0
		c0-2.4,0-4.7,0-7.2c-2.5,0-4.8,0-7.3,0c0-2.5,0-4.9,0-7.3c-2.5,0-4.9,0-7.4,0c0,12.2,0,24.4,0,36.7c-2.5,0-4.9,0-7.3,0
		c0-17.2,0-34.3,0-51.5c2.4,0,4.8,0,7.3,0c0,2.4,0,4.8,0,7.3c2.5,0,4.9,0,7.4,0c0,2.5,0,4.9,0,7.4c2.5,0,4.9,0,7.4,0
		c0,2.5,0,4.9,0,7.3c2.5,0,4.8,0,7.3,0c0-2.4,0-4.8,0-7.2C47.5,140.2,50,140.2,52.4,140.2L52.4,140.2z"/>
	<path d="M170.4,140.1c7.3,0,14.6,0,22,0c0,2.4,0,4.8,0,7.3c2.5,0,4.9,0,7.3,0c0,9.9,0,19.6,0,29.4c-2.4,0-4.8,0-7.3,0
		c0-9.8,0-19.5,0-29.3c-5,0-9.8,0-14.8,0c0,9.8,0,19.6,0,29.4c-2.5,0-4.8,0-7.3,0C170.4,164.7,170.4,152.5,170.4,140.1z"/>
	<path d="M435.9,169.6c0,2.4,0,4.8,0,7.3c-7.4,0-14.7,0-22,0c0-17.2,0-34.3,0-51.5c7.3,0,14.6,0,22,0c0,2.5,0,4.9,0,7.3l0,0
		c-4.9,0-9.8,0-14.7,0c0,12.4,0,24.6,0,36.9c0.6,0,1,0,1.5,0C427.1,169.6,431.5,169.6,435.9,169.6L435.9,169.6z"/>
	<path d="M81.9,162.2c0-2.4,0-4.9,0-7.4c4.9,0,9.7,0,14.6,0c0-2.5,0-4.9,0-7.4c-4.9,0-9.7,0-14.6,0c0-2.5,0-4.8,0-7.3
		c4.8,0,9.7,0,14.6,0c0,2.3,0,4.7,0,7.2c2.5,0,4.9,0,7.4,0c0,9.9,0,19.6,0,29.5c-7.3,0-14.6,0-22,0c0-2.4,0-4.8,0-7.2l0,0
		c4.9,0,9.7,0,14.6,0c0-2.6,0-5,0-7.5C91.6,162.2,86.7,162.2,81.9,162.2L81.9,162.2z"/>
	<path d="M133.6,169.7c0,1.9-0.1,3.7-0.1,5.6c0,0.5,0,1,0,1.5c-4.9,0-9.7,0-14.7,0c0-2.4,0-4.7,0-7.2c-2.5,0-4.8,0-7.3,0
		c0-7.4,0-14.7,0-22.2c2.3,0,4.7,0,7.2,0c0-2.5,0-4.9,0-7.3c5,0,9.8,0,14.7,0c0,2.4,0,4.8,0,7.3c2.5,0,4.9,0,7.3,0
		c0,2.5,0,4.9,0,7.3c-2.4,0-4.8,0-7.3,0c0-2.4,0-4.8,0-7.2c-5,0-9.8,0-14.7,0c0,7.4,0,14.7,0,22.1c1.2,0,2.3,0,3.4,0
		c3.4,0,6.7,0,10.1,0C132.7,169.6,133.1,169.7,133.6,169.7C133.6,169.8,133.6,169.7,133.6,169.7z"/>
	<path d="M244.1,169.6c-2.4,0-4.9,0-7.3,0c0-7.4,0-14.7,0-22.1c2.4,0,4.8,0,7.3,0c0-2.5,0-4.9,0-7.3c4.9,0,9.7,0,14.7,0
		c0,2.3,0,4.7,0,7.2c2.5,0,4.9,0,7.4,0c0,7.4,0,14.7,0,22.2c-2.5,0-4.9,0-7.4,0l0,0c0-7.4,0-14.7,0-22.1c-5,0-9.8,0-14.7,0
		C244.1,155,244.1,162.3,244.1,169.6L244.1,169.6z"/>
	<path d="M222,169.6c-2.4,0-4.9,0-7.4,0c0-7.4,0-14.7,0-22.2c-2.5,0-4.9,0-7.4,0c0-2.5,0-4.9,0-7.3c2.4,0,4.8,0,7.3,0
		c0-5,0-9.8,0-14.8c2.5,0,4.9,0,7.4,0c0,4.9,0,9.7,0,14.7c2.5,0,4.9,0,7.3,0c0,2.5,0,4.9,0,7.4c-2.4,0-4.7,0-7.2,0
		C222,154.9,222,162.3,222,169.6L222,169.6z"/>
	<path d="M52.5,140.2c0-2.5,0-4.9,0-7.5c2.3,0,4.7,0,7.2,0c0-2.5,0-4.9,0-7.3c2.5,0,4.8,0,7.3,0c0,17.2,0,34.3,0,51.5
		c-2.4,0-4.7,0-7.2,0c0-12.2,0-24.4,0-36.7C57.2,140.2,54.8,140.2,52.5,140.2C52.4,140.2,52.5,140.2,52.5,140.2z"/>
	<path d="M295.8,162.1c-4.9,0-9.7,0-14.8,0c0-2.4,0-4.8,0-7.3c-2.5,0-4.9,0-7.3,0c0-2.5,0-4.9,0-7.3c2.3,0,4.7,0,7.2,0
		c0-2.5,0-4.9,0-7.3c7.5,0,14.7,0,22.1,0c0,2.4,0,4.7,0,7.3c-7.3,0-14.6,0-22,0c0,2.5,0,4.8,0,7.3c4.8,0,9.7,0,14.7,0
		C295.7,157.3,295.7,159.8,295.8,162.1C295.7,162.2,295.8,162.1,295.8,162.1z"/>
	<path d="M162.9,176.9c-2.4,0-4.8,0-7.3,0c0-9.8,0-19.6,0-29.5c-2.5,0-4.9,0-7.3,0c0-2.5,0-4.8,0-7.2c4.9,0,9.7,0,14.7,0
		C162.9,152.4,162.9,164.6,162.9,176.9z"/>
	<path d="M443.3,140.1c2.4,0,4.8,0,7.2,0c0,7.3,0,14.6,0,22c-2.4,0-4.8,0-7.2,0l0,0c0-0.8-0.1-1.6-0.1-2.4
		C443.3,153.3,443.3,146.7,443.3,140.1L443.3,140.1z"/>
	<path d="M295.8,169.7c0,2.4,0,4.7,0,7.1c-7.4,0-14.7,0-22.1,0c0-2.4,0-4.8,0-7.2c0.3,0,0.6-0.1,0.9-0.1c6.7,0,13.4,0,20.1,0
		C295.1,169.6,295.5,169.7,295.8,169.7L295.8,169.7z"/>
	<path d="M258.7,169.6c0,2.4,0,4.8,0,7.2c-4.8,0-9.6,0-14.6,0c0-2.4,0-4.8,0-7.2l0,0C249,169.7,253.9,169.7,258.7,169.6L258.7,169.6
		z"/>
	<path d="M435.9,132.7c2.4,0,4.8,0,7.4,0c0,2.5,0,5,0,7.4c0,0,0,0,0,0c-2.5,0-4.9,0-7.4,0C435.9,137.5,435.9,135.1,435.9,132.7
		L435.9,132.7z"/>
	<path d="M155.6,132.6c0-2.5,0-4.8,0-7.2c2.4,0,4.8,0,7.3,0c0,2.4,0,4.8,0,7.2C160.4,132.6,158.1,132.6,155.6,132.6z"/>
	<path d="M81.9,169.6c-2.4,0-4.8,0-7.4,0c0-2.5,0-4.9,0-7.4c2.5,0,4.9,0,7.4,0c0,0,0,0,0,0C81.9,164.7,81.9,167.2,81.9,169.6
		L81.9,169.6z"/>
	<path d="M295.8,169.8c0-2.5,0-5.1,0-7.6c0,0,0,0,0,0c2.4,0,4.8,0,7.3,0c0,2.5,0,4.9,0,7.5C300.6,169.7,298.2,169.7,295.8,169.8
		C295.8,169.7,295.8,169.8,295.8,169.8z"/>
	<path d="M443.3,162.2c0,2.4,0,4.9,0,7.4c-2.6,0-5,0-7.4,0c0,0,0,0,0,0c0-2.5,0-4.9,0-7.4C438.5,162.2,440.9,162.2,443.3,162.2
		L443.3,162.2z"/>
	<path d="M133.6,169.8c0-2.5,0-4.9,0-7.5c2.3,0,4.7,0,7.1,0c0,2.4,0,4.8,0,7.4C138.3,169.7,135.9,169.7,133.6,169.8
		C133.6,169.7,133.6,169.8,133.6,169.8z"/>
	<path d="M222,169.7c2.4,0,4.8,0,7.3,0c0,2.4,0,4.8,0,7.2c-2.4,0-4.7,0-7.2,0C222,174.5,222,172,222,169.7
		C222,169.6,222,169.7,222,169.7z"/>
	<path fill="#FFFFFF" d="M347.3,66.3c-2.5,0-4.8,0-7.2,0c0,2.4,0,4.8,0,7.3c-68.9,0-137.7,0-206.6,0c0-2.4,0-4.8,0-7.3
		c-2.5,0-4.8,0-7.3,0c0-17.3,0-34.4,0-51.7c2.3,0,4.7,0,7.2,0c0-2.5,0-4.9,0-7.3c68.9,0,137.6,0,206.5,0c0,2.4,0,4.8,0,7.3
		c2.5,0,4.9,0,7.3,0C347.3,31.9,347.3,49,347.3,66.3z M155.5,58.9c0-2.5,0-4.9,0-7.3c-2.5,0-4.8,0-7.2,0c0,2.4,0,4.8,0,7.3
		C150.7,58.9,153,58.9,155.5,58.9z"/>
	<path d="M155.5,58.9c-2.4,0-4.8,0-7.2,0c0-2.4,0-4.8,0-7.3c2.4,0,4.8,0,7.2,0C155.5,54,155.5,56.4,155.5,58.9z"/>
</g>
</svg>
