<?xml version="1.0" encoding="utf-8"?>
<!-- Generator: Adobe Illustrator 22.0.1, SVG Export Plug-In . SVG Version: 6.00 Build 0)  -->
<svg version="1.1" baseProfile="tiny" id="Layer_1" xmlns="http://www.w3.org/2000/svg" xmlns:xlink="http://www.w3.org/1999/xlink"
	 x="0px" y="0px" viewBox="0 0 388.7 151.6" xml:space="preserve">
<g>
	<path d="M284.4,9.4c0-3.1,0-6.2,0-9.4c31.7,0,63.2,0,94.9,0c0,3.1,0,6.1,0,9.4c3.2,0,6.3,0,9.5,0c0,38,0,75.8,0,113.8
		c-3.1,0-6.2,0-9.4,0c0,6.4,0,12.6,0,18.9c-31.7,0-63.2,0-94.9,0c0-6.3,0-12.6,0-19l0,0c0.2,0,0.4,0,0.6,0c31.1,0,62.1,0,93.2,0
		c0.3,0,0.7,0,1-0.1c0-37.9,0-75.8,0-113.7c-0.6,0-1,0-1.5,0c-19.4,0-38.9,0-58.3,0C307.7,9.4,296,9.4,284.4,9.4L284.4,9.4z"/>
	<path d="M18.9,9.4c0-3.1,0-6.2,0-9.4c37.9,0,75.8,0,113.7,0c0,3.2,0,6.3,0,9.4l0,0c-0.5,0-1,0-1.6,0c-34.5,0-69,0-103.5,0
		C24.7,9.4,21.8,9.4,18.9,9.4L18.9,9.4z"/>
	<path d="M284.4,123.1c-3.1,0-6.1,0-9.3,0c0-37.9,0-75.7,0-113.7c3.1,0,6.2,0,9.3,0c0,0,0,0,0,0c0,0.4,0.1,0.9,0.1,1.3
		c0,37.1,0,74.1,0,111.2C284.4,122.3,284.3,122.7,284.4,123.1L284.4,123.1z"/>
	<path d="M132.6,9.4c3.1,0,6.2,0,9.5,0c0,3.1,0,6.2,0,9.4c3.2,0,6.3,0,9.4,0c0,28.5,0,56.9,0,85.4c-3.1,0-6.2,0-9.4,0
		c0,3.3,0,6.4,0,9.6c-3.3,0-6.4,0-9.5,0l0,0c0-3.1,0-6.3,0-9.6c3.2,0,6.3,0,9.4,0c0-28.5,0-56.9,0-85.4c-3.2,0-6.2,0-9.4,0
		C132.7,15.6,132.7,12.5,132.6,9.4L132.6,9.4z"/>
	<path d="M9.3,104.2c-3.1,0-6.1,0-9.3,0c0-28.4,0-56.8,0-85.3c3.1,0,6.1,0,9.3,0c0-3.2,0-6.3,0-9.5c3.3,0,6.5,0,9.6,0c0,0,0,0,0,0
		c0,3.1,0,6.2,0,9.5c-3.2,0-6.3,0-9.5,0c0,0.7,0,1.2,0,1.7c0,27.4,0,54.7,0,82.1C9.3,103.2,9.3,103.7,9.3,104.2L9.3,104.2z"/>
	<path d="M132.7,113.8c0,3.1,0,6.2,0,9.4c-28.4,0-56.8,0-85.3,0c0,3.2,0,6.3,0,9.6c-3.3,0-6.4,0-9.5,0l0,0c0-3.2,0-6.3,0-9.6
		c3.2,0,6.3,0,9.5,0c0-3.2,0-6.2,0-9.4c0.6,0,1.1,0,1.5,0c27.5,0,55,0,82.5,0C131.8,113.8,132.2,113.8,132.7,113.8L132.7,113.8z"/>
	<path d="M37.9,132.7c0,3.1,0,6.1,0,9.4c-3.2,0-6.3,0-9.5,0c0,3.2,0,6.3,0,9.5c-3.2,0-6.3,0-9.4,0c0-0.4-0.1-0.7-0.1-1
		c0-12,0-24.1,0-36.1c0-0.2,0-0.5,0.1-0.7l0,0c3.1,0,6.2,0,9.4,0c0,6.3,0,12.5,0,19C31.6,132.8,34.7,132.8,37.9,132.7L37.9,132.7z"
		/>
	<path d="M18.9,113.8c-3.1,0-6.3,0-9.6,0c0-3.3,0-6.5,0-9.6c0,0,0,0,0,0c3.1,0,6.3,0,9.6,0C18.9,107.5,18.9,110.7,18.9,113.8
		L18.9,113.8z"/>
	<path d="M369.7,19c0,22.1,0,44.1,0,66.2c-25.3,0-50.5,0-75.7,0c0-22.1,0-44.1,0-66.2C319.2,19,344.4,19,369.7,19z M303.4,75.8
		c19,0,37.9,0,56.8,0c0-15.8,0-31.5,0-47.3c-19,0-37.9,0-56.8,0C303.4,44.3,303.4,60,303.4,75.8z"/>
	<path d="M331.9,104.3c12.6,0,25.2,0,37.8,0c0,3.1,0,6.2,0,9.4c-12.6,0-25.1,0-37.8,0C331.9,110.6,331.9,107.5,331.9,104.3z"/>
	<path d="M47.4,47.3c0-6.3,0-12.6,0-18.9c3.1,0,6.2,0,9.4,0c0-3.2,0-6.3,0-9.4c12.7,0,25.3,0,38,0c0,3.1,0,6.2,0,9.4
		c3.2,0,6.2,0,9.4,0c0,6.3,0,12.6,0,18.9c-3.1,0-6.1,0-9.4,0c0,3.2,0,6.3,0,9.6c-3.2,0-6.3,0-9.5,0c0,6.4,0,12.6,0,18.9
		c-6.4,0-12.6,0-18.9,0c0-6.3,0-12.5,0-18.8c3.1,0,6.1,0,9.4,0c0-3.2,0-6.4,0-9.6c3.2,0,6.3,0,9.4,0c0-6.4,0-12.6,0-18.9
		c-6.3,0-12.5,0-18.8,0c0,6.3,0,12.5,0,18.8C60,47.3,53.7,47.3,47.4,47.3z"/>
	<path d="M85.2,85.3c0,6.3,0,12.6,0,18.9c-6.3,0-12.5,0-18.8,0c0-6.3,0-12.6,0-18.9C72.7,85.3,78.9,85.3,85.2,85.3z"/>
	<path d="M312.9,47.2c0-3.1,0-6.2,0-9.3c3.1,0,6.2,0,9.3,0c0,3.1,0,6.2,0,9.3C319.2,47.2,316.1,47.2,312.9,47.2z"/>
	<path d="M341.2,47.3c-3.1,0-6.2,0-9.3,0c0-3.1,0-6.2,0-9.3c3.1,0,6.2,0,9.3,0C341.2,41,341.2,44.1,341.2,47.3z"/>
	<path d="M322.3,57c0,3.1,0,6.1,0,9.3c-3.1,0-6.2,0-9.3,0c0-3.1,0-6.1,0-9.3C316,57,319.1,57,322.3,57z"/>
</g>
</svg>
