<?xml version="1.0" encoding="utf-8"?>
<!-- Generator: Adobe Illustrator 22.0.1, SVG Export Plug-In . SVG Version: 6.00 Build 0)  -->
<svg version="1.1" baseProfile="tiny" id="Layer_1" xmlns="http://www.w3.org/2000/svg" xmlns:xlink="http://www.w3.org/1999/xlink"
	 x="0px" y="0px" viewBox="0 0 229 354.6" xml:space="preserve">
<rect y="259" fill="#FFFFFF" width="229" height="95.6"/>
<g>
	<path d="M41.3,252c-2.6,0-5.3,0-8,0c0-8.1,0-16.2,0-24.4c-2.7,0-5.4,0-8.1,0c0-8.1,0-16.2,0-24.3c-2.7,0-5.4,0-8.1,0
		c0-2.8,0-5.4,0-8.1c-2.7,0-5.4,0-8.1,0c0-35.3,0-70.5,0-105.7c2.6,0,5.3,0,8,0c0-2.8,0-5.4,0-8.1c2.7,0,5.3,0,8.1,0
		c0-8.2,0-16.2,0-24.4c2.8,0,5.4,0,8.1,0c0-5.4,0-10.8,0-16.2c-2.6,0-5.2,0-8,0c0-5.5,0-10.8,0-16.3c2.6,0,5.2,0,8,0
		c0-2.8,0-5.4,0-8.1c13.6,0,27,0,40.7,0c0-2.8,0-5.4,0-8.1c2.8,0,5.4,0,8.2,0c0-2.8,0-5.4,0-8.1c19,0,37.9,0,57.1,0
		c0,2.8,0,5.5,0,8.2c-0.4,0-0.9-0.1-1.3-0.1c-15.4,0-30.9,0-46.3,0c-0.4,0-0.8,0-1.3,0c0,2.8,0,5.4,0,8c16.3,0,32.4,0,48.7,0
		c0-0.7,0-1.3,0-1.9c0-2,0.1-4,0.1-6c2.6,0,5.2,0,8,0c0,2.6,0,5.2,0,8c16.3,0,32.5,0,48.8,0c0,2.8,0,5.4,0,8.2c2.7,0,5.3,0,8,0
		c0,5.4,0,10.7,0,16.2c-2.6,0-5.2,0-8.1,0c0,8.3,0,16.4,0,24.5l0,0c-2.7,0-5.4,0-8.2,0c0-8.3,0-16.3,0-24.3c-48.8,0-97.5,0-146.4,0
		c0,8.1,0,16.2,0,24.3c-2.7,0-5.3,0-8.1,0c0,5.4,0,10.8,0,16.2c-2.8,0-5.4,0-8.2,0c0,5.5,0,10.8,0,16.2c-2.7,0-5.3,0-7.9,0
		c0,29.9,0,59.6,0,89.5c2.7,0,5.3,0,8,0c0,5.4,0,10.8,0,16.2c2.8,0,5.4,0,8.2,0c0,8.2,0,16.2,0,24.4c2.8,0,5.3,0,8.1,0
		c0,0.5,0,1,0,1.4c0,3.6,0,7.3,0,10.9C41.3,243.9,41.3,248,41.3,252L41.3,252z M33.3,32.3c54.2,0,108.3,0,162.4,0c0-2.7,0-5.3,0-7.9
		c-54.2,0-108.3,0-162.4,0C33.3,27.1,33.3,29.7,33.3,32.3z"/>
	<path d="M212.1,186.9c0,8.1,0,16.1,0,24.3c-2.7,0-5.4,0-8.1,0c0,8.2,0,16.2,0,24.4c-2.8,0-5.4,0-8.1,0c0,8.2,0,16.2,0,24.4
		c-51.6,0-103,0-154.6,0c0-2.7,0-5.4,0-8.1c0,0,0,0,0,0c0.6,0,1.1,0,1.7,0c47.7,0,95.4,0,143.1,0c0.5,0,1,0,1.7,0
		c0-8.2,0-16.3,0-24.5c2.8,0,5.4,0,8.1,0c0-8.1,0-16.1,0-24.3c2.8,0,5.4,0,8.2,0c0-5.5,0-10.8,0-16.2
		C206.8,187,209.5,187,212.1,186.9L212.1,186.9z"/>
	<path d="M33.3,341.4c-2.8,0-5.4,0-8.2,0c0-16.2,0-32.4,0-48.7c-5.4,0-10.7,0-16.1,0c0-2.8,0-5.4,0-8.1c13.5,0,27,0,40.5,0
		c0,2.7,0,5.3,0,8.1c-5.3,0-10.6,0-16.1,0C33.3,308.9,33.3,325.1,33.3,341.4z"/>
	<path d="M212.1,97.4c2.6,0,5.3,0,8,0c0,29.9,0,59.7,0,89.5c-2.7,0-5.3,0-8,0l0,0c0-0.4-0.1-0.8-0.1-1.2c0-29.1,0-58.1,0-87.2
		C212.1,98.2,212.2,97.8,212.1,97.4L212.1,97.4z"/>
	<path d="M204.1,308.7c-0.5,0-0.9,0.1-1.4,0.1c-4.5,0-9,0-13.6,0c-0.4,0-0.9,0-1.4,0c0,10.9,0,21.6,0,32.5c-2.7,0-5.4,0-8.1,0
		c0-18.9,0-37.8,0-56.8c2.6,0,5.3,0,8,0c0,5.4,0,10.7,0,16.1c5.4,0,10.7,0,16.4,0C204.1,303.5,204.1,306.1,204.1,308.7L204.1,308.7z
		"/>
	<path d="M106.3,325.2c0-2.7,0-5.3,0-8.1c5.5,0,10.8,0,16.4,0c0-2.8,0-5.6,0-8.3l0,0c2.2,0,4.4,0.1,6.6,0.1c0.5,0,0.9,0,1.5,0
		c0,10.9,0,21.7,0,32.5c-8.1,0-16.2,0-24.4,0c0-2.7,0-5.4,0-8.1l0,0c5.4,0,10.8,0,16.2,0c0-2.9,0-5.5,0-8.2
		C117.1,325.2,111.7,325.2,106.3,325.2L106.3,325.2z"/>
	<path d="M73.9,308.8c0,2.7,0,5.3,0,8.1c-2.7,0-5.4,0-8.1,0c0,8.2,0,16.3,0,24.4c-2.8,0-5.4,0-8.1,0c0-13.5,0-27,0-40.6
		c2.6,0,5.3,0,8.1,0c0,2.7,0,5.3,0,8C68.5,308.9,71.2,308.9,73.9,308.8L73.9,308.8z"/>
	<path d="M147.2,317c5.3,0,10.6,0,16.1,0c0,2.8,0,5.4,0,8.2c2.8,0,5.4,0,8.1,0c0,2.7,0,5.4,0,8.1c-2.7,0-5.3,0-8,0
		c0,2.8,0,5.4,0,8.1c-8.1,0-16.2,0-24.3,0c0-2.6,0-5.3,0-8.1c8.1,0,16.1,0,24.2,0c0-2.8,0-5.4,0-8.1c-5.4,0-10.7,0-16,0
		C147.2,322.4,147.2,319.7,147.2,317C147.2,316.9,147.2,317,147.2,317z"/>
	<path d="M195.8,65c2.7,0,5.3,0,8.1,0c0,2.7,0,5.3,0,8.1c2.8,0,5.4,0,8.2,0c0,8.2,0,16.3,0,24.3c0,0,0,0,0,0c-2.7,0-5.4,0-8.3,0
		c0-5.4,0-10.7,0-16.2c-2.8,0-5.4,0-8.1,0C195.8,75.7,195.8,70.4,195.8,65L195.8,65z"/>
	<path d="M204.1,308.8c2,0,4.1,0.1,6.1,0.1c0.6,0,1.2,0,1.9,0c0,10.9,0,21.6,0,32.5c-2.6,0-5.2,0-8,0c0-0.4-0.1-0.7-0.1-1.1
		c0-10.1,0-20.2,0-30.3C204,309.5,204,309.1,204.1,308.8C204.1,308.7,204.1,308.8,204.1,308.8z"/>
	<path d="M147.1,308.9c0-2.7,0-5.3,0-8.1c8.1,0,16.1,0,24.2,0c0,2.7,0,5.3,0,8c-0.3,0-0.5,0.1-0.7,0.1c-7.6,0-15.3,0-22.9,0
		C147.5,308.9,147.3,308.9,147.1,308.9L147.1,308.9z"/>
	<path d="M122.7,308.8c-0.2,0-0.5,0.1-0.7,0.1c-5,0-10,0-15,0c-0.2,0-0.4,0-0.6-0.1c0-2.7,0-5.3,0-8c5.4,0,10.7,0,16.3,0
		C122.7,303.5,122.7,306.1,122.7,308.8C122.7,308.8,122.7,308.8,122.7,308.8z"/>
	<path d="M73.9,308.9c0-2.7,0-5.3,0-8.1c5.4,0,10.7,0,16.1,0c0,2.6,0,5.3,0,8C84.6,308.8,79.3,308.8,73.9,308.9
		C73.9,308.8,73.9,308.9,73.9,308.9z"/>
	<path d="M147.1,308.8c0,2.7,0,5.4,0.1,8.1c0,0,0,0,0,0c-2.7,0-5.4,0-8.2,0c0-2.6,0-5.3,0-8.1C141.7,308.9,144.4,308.9,147.1,308.8
		C147.1,308.9,147.1,308.8,147.1,308.8z"/>
	<path d="M106.3,333.3c-2.6,0-5.3,0-8,0c0-2.7,0-5.4,0-8.1c2.7,0,5.3,0,8,0l0,0C106.3,327.9,106.3,330.6,106.3,333.3L106.3,333.3z"
		/>
	<path fill="#FFFFFF" d="M195.8,65c0,5.4,0,10.7,0,16.2c2.7,0,5.3,0,8.1,0c0,5.5,0,10.8,0,16.2c2.9,0,5.6,0,8.3,0
		c0,0.4-0.1,0.8-0.1,1.2c0,29.1,0,58.1,0,87.2c0,0.4,0,0.8,0.1,1.2c-2.7,0-5.4,0-8.2,0c0,5.4,0,10.7,0,16.2c-2.8,0-5.4,0-8.2,0
		c0,8.2,0,16.2,0,24.3c-2.7,0-5.4,0-8.1,0c0,8.2,0,16.3,0,24.5c-0.7,0-1.2,0-1.7,0c-47.7,0-95.4,0-143.1,0c-0.6,0-1.1,0-1.7,0
		c0-4,0-8.1,0.1-12.1c0-3.6,0-7.3,0-10.9c0-0.4,0-0.9,0-1.4c-2.7,0-5.3,0-8.1,0c0-8.2,0-16.2,0-24.4c-2.8,0-5.4,0-8.2,0
		c0-5.5,0-10.8,0-16.2c-2.7,0-5.3,0-8,0c0-29.8,0-59.6,0-89.5c2.6,0,5.2,0,7.9,0c0-5.4,0-10.8,0-16.2c2.8,0,5.4,0,8.2,0
		c0-5.5,0-10.8,0-16.2c2.7,0,5.3,0,8.1,0c0-8.2,0-16.2,0-24.3c48.8,0,97.5,0,146.4,0c0,8,0,16.1,0,24.3C190.4,65,193.1,65,195.8,65z
		 M65.6,203.4c0-0.3,0.1-0.6,0.1-0.8c0-5,0-9.9,0-14.9c0-0.2-0.1-0.5-0.1-0.7c-2.7,0-5.4,0-8.1,0c0-0.2,0-0.3,0-0.5
		c0-29.4,0-58.7,0-88.1c0-0.4-0.1-0.7-0.1-1.1c2.7,0,5.5,0,8.3,0c0-5.4,0-10.7,0-16.2c2.8,0,5.4,0,8.1,0c0-5,0-9.8,0-14.6
		c0-0.5,0.1-0.9,0.1-1.4c2.6,0,5.3,0,8,0c0-2.9,0-5.5,0-8.2c-2.7,0-5.4,0-7.9,0c0,2.8,0,5.5,0,8.2c-2.7,0-5.5,0-8.3,0
		c0,5.3,0,10.7,0,16.2c-2.8,0-5.4,0-8.1,0c0,2.1,0,4,0,5.9c0,3.4-0.1,6.8-0.1,10.2c-2.7,0-5.3,0-8,0c0,30,0,59.8,0,89.6
		c2.7,0,5.4,0,8.1,0c0,5.4,0,10.8,0,16.3c0.9,0,1.5,0,2.2,0C61.8,203.3,63.7,203.3,65.6,203.4c0,0.4,0.1,0.9,0.1,1.3
		c0,7.2,0,14.4,0,21.5c0,0.4,0,0.8,0,1.2c2.9,0,5.6,0,8.3,0c0,2.7,0,5.5,0,8.2c2.7,0,5.3,0,7.9,0c0-2.7,0-5.3,0-8.1
		c-0.7,0-1.3,0-1.9,0c-2,0-4.1-0.1-6.1-0.1c0-0.4-0.1-0.9-0.1-1.3c0-7.2,0-14.3,0-21.5c0-0.4,0-0.9,0-1.3
		C71,203.4,68.3,203.4,65.6,203.4z M139.1,203.4c-2.7,0-5.5,0-8.2,0c0,8,0,16.1,0,24.1c2.7,0,5.3,0,8,0c0-0.5,0-0.9,0-1.4
		c0-7.2,0-14.3,0-21.5C138.9,204.2,139,203.8,139.1,203.4c2.6,0,5.3,0,8,0c0-0.7,0-1.2,0-1.6c0-4.5,0-8.9,0-13.4
		c0-0.4,0.1-0.9,0.1-1.3c2.6,0,5.2,0,7.8,0c0-30,0-59.7,0-89.6c-0.6,0-1.1,0-1.6,0c-2.1,0-4.1-0.1-6.2-0.1c0-0.4-0.1-0.9-0.1-1.3
		c0-4.5,0-9,0-13.4c0-0.4,0-0.8,0-1.4c-2.8,0-5.4,0-8.2,0c0-5.5,0-10.8,0-16.2c-2.8,0-5.4,0-8,0c0,5.4,0,10.7,0,16.2
		c2.7,0,5.3,0,8.1,0c0,5.5,0,10.8,0,16.1c2.9,0,5.6,0,8.3,0c0,0.4-0.1,0.9-0.1,1.3c0,29.1,0,58.1,0,87.2c0,0.4,0.1,0.9,0.2,1.3
		c-2.7,0-5.5,0-8.2,0c0,5.4,0,10.8,0,16.2C139,203.3,139,203.3,139.1,203.4z M171.3,203.3c-2.6,0-5.3,0-7.9,0c0,8.1,0,16.2,0,24.2
		c2.7,0,5.3,0,8,0c0-7.3,0-14.4,0-21.6C171.4,205,171.3,204.1,171.3,203.3c2.7,0,5.4,0,8.1,0c0-0.3,0.1-0.5,0.1-0.7c0-5,0-10,0-15
		c0-0.2-0.1-0.5-0.1-0.7c2.7,0,5.5,0,8.2,0c0-29.8,0-59.6,0-89.4c-2.8,0-5.4,0-8.1,0c0-5.4,0-10.7,0-16.3c-2.7,0-5.4,0-8.1,0
		c0-5.5,0-10.8,0-16.2c-2.7,0-5.3,0-8.1,0c0-2.7,0-5.4,0-8c-2.8,0-5.4,0-8.1,0c0,2.7,0,5.3,0,8.1c2.7,0,5.3,0,8.1,0
		c0,5.4,0,10.8,0,16.3c2.8,0,5.4,0,8.1,0c0,5.5,0,10.8,0,16.1c2.8,0,5.4,0,8.1,0c0,0.2,0,0.3,0,0.5c0,29.4,0,58.7,0,88.1
		c0,0.3-0.1,0.6-0.1,0.9c-2.7,0-5.3,0-8.1,0C171.3,192.5,171.3,197.9,171.3,203.3z M82.1,97.5c0,29.9,0,59.6,0,89.5c2.7,0,5.3,0,8,0
		c0,5.5,0,10.8,0,16.3c2.8,0,5.4,0,8.2,0c0,8.1,0,16.2,0,24.2c2.7,0,5.4,0,7.9,0c0-8.1,0-16.1,0-24.3c-2.7,0-5.3,0-8,0
		c0-5.4,0-10.8,0-16.3c-2.8,0-5.4,0-8.1,0c0-29.9,0-59.6,0-89.5c2.7,0,5.3,0,8.1,0c0-5.5,0-10.8,0-16.2c2.8,0,5.3,0,7.9,0
		c0-5.5,0-10.8,0-16.2c-2.7,0-5.3,0-8,0c0,5.4,0,10.7,0,16.2c-2.8,0-5.4,0-8.2,0c0,5.5,0,10.8,0,16.2C87.3,97.5,84.8,97.5,82.1,97.5
		z"/>
	<path fill="#FFFFFF" d="M33.3,32.3c0-2.7,0-5.2,0-7.9c54.2,0,108.2,0,162.4,0c0,2.6,0,5.2,0,7.9C141.6,32.3,87.5,32.3,33.3,32.3z"
		/>
	<path fill="#FFFFFF" d="M139,8.2c0,2-0.1,4-0.1,6c0,0.6,0,1.2,0,1.9c-16.3,0-32.4,0-48.7,0c0-2.6,0-5.2,0-8c0.4,0,0.8,0,1.3,0
		c15.4,0,30.9,0,46.3,0C138.2,8.1,138.6,8.2,139,8.2C139.1,8.2,139,8.2,139,8.2z"/>
	<path fill="#FFFFFF" d="M106.3,333.4c0-2.7,0-5.5,0-8.2c5.4,0,10.8,0,16.2,0c0,2.7,0,5.3,0,8.2
		C117.1,333.4,111.7,333.4,106.3,333.4z"/>
	<path d="M82.1,97.5c2.6,0,5.2,0,8,0c0-5.4,0-10.8,0-16.2c2.8,0,5.4,0,8.2,0c0-5.5,0-10.8,0-16.2c2.7,0,5.3,0,8,0
		c0,5.4,0,10.7,0,16.2c-2.6,0-5.2,0-7.9,0c0,5.4,0,10.8,0,16.2c-2.8,0-5.4,0-8.1,0c0,29.9,0,59.6,0,89.5c2.6,0,5.3,0,8.1,0
		c0,5.5,0,10.8,0,16.3c2.7,0,5.3,0,8,0c0,8.1,0,16.1,0,24.3c-2.6,0-5.2,0-7.9,0c0-8,0-16,0-24.2c-2.8,0-5.4,0-8.2,0
		c0-5.5,0-10.9,0-16.3c-2.8,0-5.3,0-8,0C82.1,157.1,82.1,127.3,82.1,97.5z"/>
	<path d="M57.5,97.3c0,0.4,0.1,0.7,0.1,1.1c0,29.4,0,58.7,0,88.1c0,0.2,0,0.3,0,0.5l0,0c-2.7,0-5.3,0-8.1,0c0-29.8,0-59.5,0-89.6
		C52.2,97.3,54.9,97.3,57.5,97.3C57.5,97.3,57.5,97.3,57.5,97.3z"/>
	<path d="M179.5,97.4c2.7,0,5.3,0,8.1,0c0,29.9,0,59.6,0,89.4c-2.7,0-5.4,0-8.2,0l0,0c0-0.3,0.1-0.6,0.1-0.9c0-29.4,0-58.7,0-88.1
		C179.5,97.7,179.5,97.6,179.5,97.4L179.5,97.4z"/>
	<path d="M147.2,187c-0.1-0.4-0.2-0.9-0.2-1.3c0-29.1,0-58.1,0-87.2c0-0.4,0.1-0.9,0.1-1.3c0,0,0,0,0,0c2.1,0,4.1,0.1,6.2,0.1
		c0.5,0,1,0,1.6,0c0,29.8,0,59.6,0,89.6C152.4,187,149.8,187,147.2,187C147.2,187,147.2,187,147.2,187z"/>
	<path d="M179.5,97.4c-2.7,0-5.3,0-8.1,0c0-5.4,0-10.7,0-16.1c-2.7,0-5.3,0-8.1,0c0-5.5,0-10.8,0-16.3c-2.8,0-5.4,0-8.1,0
		c0-2.7,0-5.4,0-8.1c2.6,0,5.3,0,8.1,0c0,2.6,0,5.3,0,8c2.8,0,5.3,0,8.1,0c0,5.4,0,10.8,0,16.2c2.8,0,5.4,0,8.1,0
		C179.5,86.7,179.5,92.1,179.5,97.4C179.5,97.4,179.5,97.4,179.5,97.4z"/>
	<path d="M147.2,97.3c-2.7,0-5.4,0-8.3,0c0-5.3,0-10.6,0-16.1c-2.8,0-5.4,0-8.1,0c0-5.5,0-10.8,0-16.2c2.6,0,5.3,0,8,0
		c0,5.4,0,10.7,0,16.2c2.8,0,5.4,0,8.2,0c0,0.6,0,1,0,1.4c0,4.5,0,9,0,13.4C147.1,96.5,147.2,96.9,147.2,97.3
		C147.2,97.3,147.2,97.3,147.2,97.3z"/>
	<path d="M74,65.1c0,0.5-0.1,0.9-0.1,1.4c0,4.8,0,9.7,0,14.6c-2.7,0-5.3,0-8.1,0c0,5.5,0,10.8,0,16.2c-2.9,0-5.6,0-8.3,0
		c0,0,0,0,0,0c0-3.4,0.1-6.8,0.1-10.2c0-1.9,0-3.8,0-5.9c2.7,0,5.4,0,8.1,0c0-5.5,0-10.8,0-16.2C68.6,65.1,71.3,65.1,74,65.1
		L74,65.1z"/>
	<path d="M171.3,203.2c0,0.9,0.1,1.8,0.1,2.6c0,7.2,0,14.3,0,21.6c-2.7,0-5.3,0-8,0c0-8,0-16.1,0-24.2
		C166.1,203.3,168.7,203.3,171.3,203.2C171.3,203.3,171.3,203.2,171.3,203.2z"/>
	<path d="M139,203.3c0,0.4-0.1,0.9-0.1,1.3c0,7.2,0,14.3,0,21.5c0,0.4,0,0.9,0,1.4c-2.7,0-5.4,0-8,0c0-8,0-16.1,0-24.1
		C133.6,203.4,136.3,203.4,139,203.3L139,203.3z"/>
	<path d="M74,227.4c-2.7,0-5.4,0-8.3,0c0-0.3,0-0.8,0-1.2c0-7.2,0-14.4,0-21.5c0-0.4-0.1-0.9-0.1-1.3c0,0,0,0,0,0c2.7,0,5.4,0,8.2,0
		c0,0.4,0,0.8,0,1.3c0,7.2,0,14.3,0,21.5C73.9,226.5,74,227,74,227.4L74,227.4z"/>
	<path d="M179.4,186.8c0,0.2,0.1,0.5,0.1,0.7c0,5,0,10,0,15c0,0.2,0,0.4-0.1,0.7c-2.7,0-5.4,0-8.1,0c0,0,0,0,0,0
		c0-5.4,0-10.8,0-16.4C174.1,186.9,176.8,186.9,179.4,186.8C179.4,186.9,179.4,186.8,179.4,186.8z"/>
	<path d="M139.1,203.4c0,0,0-0.1,0-0.1c0-5.4,0-10.8,0-16.2c2.8,0,5.5,0,8.2,0c0,0,0,0,0,0c0,0.4-0.1,0.9-0.1,1.3
		c0,4.5,0,8.9,0,13.4c0,0.4,0,0.9,0,1.6C144.3,203.3,141.7,203.3,139.1,203.4C139,203.3,139.1,203.4,139.1,203.4z"/>
	<path d="M57.6,187c2.7,0,5.3,0,8.1,0c0,0.3,0.1,0.5,0.1,0.7c0,5,0,9.9,0,14.9c0,0.3-0.1,0.6-0.1,0.8c0,0,0,0,0,0
		c-1.9,0-3.9-0.1-5.8-0.1c-0.7,0-1.4,0-2.2,0C57.6,197.7,57.6,192.3,57.6,187C57.6,186.9,57.6,187,57.6,187z"/>
	<path d="M74,227.4c2,0,4.1,0.1,6.1,0.1c0.6,0,1.2,0,1.9,0c0,2.7,0,5.3,0,8.1c-2.6,0-5.3,0-7.9,0C74,232.9,74,230.1,74,227.4
		C74,227.4,74,227.4,74,227.4z"/>
	<path d="M74,65.1c0-2.7,0-5.4,0-8.2c2.6,0,5.2,0,7.9,0c0,2.6,0,5.2,0,8.2C79.3,65.1,76.6,65.1,74,65.1C74,65.1,74,65.1,74,65.1z"/>
</g>
</svg>
